<?xml version="1.0" encoding="UTF-8"?>
<svg xmlns="http://www.w3.org/2000/svg" xmlns:xlink="http://www.w3.org/1999/xlink" width="802px" height="374px" viewBox="0 0 602 281" version="1.1">
<g id="surface1">
<path style=" stroke:none;fill-rule:nonzero;fill:rgb(99.215686%,72.941178%,18.82353%);fill-opacity:1;" d="M 602 0 L 0.0742188 0 L 0.0742188 280.699219 L 602 280.699219 Z M 602 0 "/>
<path style=" stroke:none;fill-rule:nonzero;fill:rgb(0%,0%,0%);fill-opacity:1;" d="M 306.105469 104.359375 L 306.105469 46.882812 L 324.34375 46.882812 L 324.34375 103.234375 C 324.34375 108.945312 325.546875 110.597656 328.773438 110.597656 C 332.226562 110.597656 333.125 109.019531 333.125 103.234375 L 333.125 46.882812 L 351.367188 46.882812 L 351.367188 104.359375 C 351.367188 121.191406 342.886719 128.328125 328.773438 128.328125 C 314.0625 128.253906 306.105469 121.191406 306.105469 104.359375 Z M 306.105469 104.359375 "/>
<path style=" stroke:none;fill-rule:nonzero;fill:rgb(0%,0%,0%);fill-opacity:1;" d="M 378.464844 127.050781 L 360.523438 127.050781 L 360.523438 46.882812 L 383.117188 46.882812 C 399.332031 46.882812 405.785156 53.34375 405.785156 66.945312 L 405.785156 81.070312 C 405.785156 94.519531 399.332031 102.480469 383.117188 102.480469 L 378.464844 102.480469 Z M 378.464844 86.480469 L 382.140625 86.480469 C 385.671875 86.480469 387.472656 84.449219 387.472656 80.542969 L 387.472656 67.695312 C 387.472656 63.9375 385.820312 62.136719 382.21875 62.136719 L 378.464844 62.136719 Z M 378.464844 86.480469 "/>
<path style=" stroke:none;fill-rule:nonzero;fill:rgb(0%,0%,0%);fill-opacity:1;" d="M 413.742188 127.050781 L 413.742188 46.882812 L 430.105469 46.882812 L 444.21875 86.101562 L 445.421875 90.535156 L 445.121094 83.324219 L 445.121094 46.882812 L 461.632812 46.882812 L 461.632812 127.050781 L 445.644531 127.050781 L 431.15625 87.832031 L 429.808594 83.25 L 430.257812 91.136719 L 430.257812 126.976562 L 413.742188 126.976562 Z M 413.742188 127.050781 "/>
<path style=" stroke:none;fill-rule:nonzero;fill:rgb(0%,0%,0%);fill-opacity:1;" d="M 208.148438 46.882812 L 208.148438 233.515625 L 180.898438 233.515625 L 180.898438 96.773438 L 180.148438 97.449219 C 168.140625 108.792969 154.777344 118.785156 140.515625 127.203125 L 140.515625 96.320312 C 148.023438 91.0625 155.152344 85.277344 161.835938 79.039062 C 172.191406 69.347656 181.574219 58.527344 189.683594 46.808594 L 208.148438 46.808594 Z M 208.148438 46.882812 "/>
<path style=" stroke:none;fill-rule:nonzero;fill:rgb(0%,0%,0%);fill-opacity:1;" d="M 285.914062 96.398438 L 285.914062 127.277344 C 271.574219 118.863281 258.289062 108.792969 246.28125 97.523438 L 245.527344 96.847656 L 245.527344 233.589844 L 218.28125 233.589844 L 218.28125 46.882812 L 236.820312 46.882812 C 244.929688 58.605469 254.234375 69.421875 264.667969 79.117188 C 271.273438 85.351562 278.40625 91.136719 285.914062 96.398438 Z M 285.914062 96.398438 "/>
<path style=" stroke:none;fill-rule:nonzero;fill:rgb(0%,0%,0%);fill-opacity:1;" d="M 309.332031 164.09375 L 309.332031 148.839844 L 313.234375 148.839844 L 313.234375 163.867188 C 313.234375 165.96875 313.761719 166.722656 315.1875 166.722656 C 316.613281 166.722656 317.136719 165.96875 317.136719 163.867188 L 317.136719 148.839844 L 320.964844 148.839844 L 320.964844 164.09375 C 320.964844 168.523438 318.941406 170.476562 315.1875 170.476562 C 311.285156 170.476562 309.332031 168.523438 309.332031 164.09375 Z M 309.332031 164.09375 "/>
<path style=" stroke:none;fill-rule:nonzero;fill:rgb(0%,0%,0%);fill-opacity:1;" d="M 323.894531 170.101562 L 323.894531 148.839844 L 327.273438 148.839844 L 332.152344 160.859375 L 332.902344 163.265625 L 332.675781 160.410156 L 332.675781 148.914062 L 336.128906 148.914062 L 336.128906 170.179688 L 332.828125 170.179688 L 327.796875 158.082031 L 327.046875 155.527344 L 327.273438 158.683594 L 327.273438 170.179688 L 323.894531 170.179688 Z M 323.894531 170.101562 "/>
<path style=" stroke:none;fill-rule:nonzero;fill:rgb(0%,0%,0%);fill-opacity:1;" d="M 338.679688 166.496094 L 341.160156 166.496094 L 341.160156 152.371094 L 338.679688 152.371094 L 338.679688 148.839844 L 347.3125 148.839844 L 347.3125 152.371094 L 344.910156 152.371094 L 344.910156 166.496094 L 347.3125 166.496094 L 347.3125 170.101562 L 338.679688 170.101562 Z M 338.679688 166.496094 "/>
<path style=" stroke:none;fill-rule:nonzero;fill:rgb(0%,0%,0%);fill-opacity:1;" d="M 348.890625 148.839844 L 352.792969 148.839844 L 355.34375 161.539062 L 355.570312 164.691406 L 355.796875 161.539062 L 358.273438 148.839844 L 362.175781 148.839844 L 357.523438 170.101562 L 353.695312 170.101562 Z M 348.890625 148.839844 "/>
<path style=" stroke:none;fill-rule:nonzero;fill:rgb(0%,0%,0%);fill-opacity:1;" d="M 364.050781 170.101562 L 364.050781 148.839844 L 373.960938 148.839844 L 373.960938 152.296875 L 367.804688 152.296875 L 367.804688 157.554688 L 373.210938 157.554688 L 373.210938 161.085938 L 367.804688 161.085938 L 367.804688 166.496094 L 374.109375 166.496094 L 374.109375 170.101562 Z M 364.050781 170.101562 "/>
<path style=" stroke:none;fill-rule:nonzero;fill:rgb(0%,0%,0%);fill-opacity:1;" d="M 380.265625 170.101562 L 376.585938 170.101562 L 376.585938 148.839844 L 382.292969 148.839844 C 386.269531 148.839844 387.921875 150.417969 387.921875 153.949219 L 387.921875 156.503906 C 387.921875 158.605469 387.171875 159.660156 385.671875 160.261719 C 387.246094 160.785156 387.695312 161.839844 387.695312 163.941406 L 387.695312 168.75 C 387.695312 169.351562 387.921875 169.800781 388.296875 170.179688 L 384.320312 170.179688 C 384.019531 169.953125 383.945312 169.425781 383.945312 168.75 L 383.945312 164.167969 C 383.945312 162.664062 383.492188 162.0625 381.917969 162.0625 L 380.339844 162.0625 L 380.339844 170.101562 Z M 380.265625 158.605469 L 382.066406 158.605469 C 383.570312 158.605469 384.167969 157.929688 384.167969 156.503906 L 384.167969 154.097656 C 384.167969 152.671875 383.570312 152.070312 382.066406 152.070312 L 380.265625 152.070312 Z M 380.265625 158.605469 "/>
<path style=" stroke:none;fill-rule:nonzero;fill:rgb(0%,0%,0%);fill-opacity:1;" d="M 390.097656 164.917969 L 390.097656 162.0625 L 394.078125 162.0625 L 394.078125 164.84375 C 394.078125 166.195312 394.527344 167.023438 396.105469 167.023438 C 397.53125 167.023438 397.980469 166.195312 397.980469 164.992188 L 397.980469 163.867188 C 397.980469 163.265625 397.832031 162.816406 397.53125 162.363281 C 396.929688 161.539062 395.804688 160.9375 394.601562 160.410156 C 393.925781 160.035156 393.25 159.660156 392.652344 159.207031 C 391.375 158.308594 390.398438 156.953125 390.398438 154.777344 L 390.398438 153.875 C 390.398438 150.566406 392.199219 148.613281 396.027344 148.613281 C 399.855469 148.613281 401.582031 150.492188 401.582031 153.574219 L 401.582031 155.902344 L 397.832031 155.902344 L 397.832031 153.796875 C 397.832031 152.371094 397.304688 151.769531 396.027344 151.769531 C 394.753906 151.769531 394.226562 152.597656 394.226562 153.875 L 394.226562 154.476562 C 394.226562 155.074219 394.378906 155.453125 394.679688 155.828125 C 395.277344 156.578125 396.402344 157.105469 397.53125 157.707031 C 398.207031 158.082031 398.882812 158.457031 399.558594 158.90625 C 400.832031 159.808594 401.808594 161.160156 401.808594 163.414062 L 401.808594 165.070312 C 401.808594 168.449219 399.855469 170.476562 396.027344 170.476562 C 391.601562 170.476562 390.097656 168.523438 390.097656 164.917969 Z M 390.097656 164.917969 "/>
<path style=" stroke:none;fill-rule:nonzero;fill:rgb(0%,0%,0%);fill-opacity:1;" d="M 403.609375 166.496094 L 406.085938 166.496094 L 406.085938 152.371094 L 403.609375 152.371094 L 403.609375 148.839844 L 412.242188 148.839844 L 412.242188 152.371094 L 409.839844 152.371094 L 409.839844 166.496094 L 412.242188 166.496094 L 412.242188 170.101562 L 403.609375 170.101562 Z M 403.609375 166.496094 "/>
<path style=" stroke:none;fill-rule:nonzero;fill:rgb(0%,0%,0%);fill-opacity:1;" d="M 420.199219 148.839844 C 421.476562 148.839844 422.527344 149.066406 423.5 149.515625 C 425.378906 150.34375 426.578125 152.144531 426.578125 155.226562 L 426.578125 163.792969 C 426.578125 165.292969 426.277344 166.496094 425.753906 167.398438 C 424.703125 169.277344 422.675781 170.101562 420.199219 170.101562 L 414.71875 170.101562 L 414.71875 148.839844 Z M 418.546875 166.722656 L 420.050781 166.722656 C 421.699219 166.722656 422.601562 165.746094 422.601562 163.414062 L 422.601562 155.375 C 422.601562 153.046875 421.625 152.070312 419.972656 152.070312 L 418.546875 152.070312 Z M 418.546875 166.722656 "/>
<path style=" stroke:none;fill-rule:nonzero;fill:rgb(0%,0%,0%);fill-opacity:1;" d="M 432.207031 166.945312 L 431.609375 170.101562 L 427.78125 170.101562 L 432.507812 148.839844 L 436.335938 148.839844 L 441.140625 170.101562 L 437.3125 170.101562 L 436.710938 166.945312 Z M 436.039062 163.640625 L 434.609375 156.578125 L 434.386719 153.574219 L 434.160156 156.578125 L 432.808594 163.640625 Z M 436.039062 163.640625 "/>
<path style=" stroke:none;fill-rule:nonzero;fill:rgb(0%,0%,0%);fill-opacity:1;" d="M 448.496094 148.839844 C 449.773438 148.839844 450.824219 149.066406 451.800781 149.515625 C 453.675781 150.34375 454.878906 152.144531 454.878906 155.226562 L 454.878906 163.792969 C 454.878906 165.292969 454.578125 166.496094 454.050781 167.398438 C 453 169.277344 450.972656 170.101562 448.496094 170.101562 L 443.019531 170.101562 L 443.019531 148.839844 Z M 446.847656 166.722656 L 448.347656 166.722656 C 450 166.722656 450.898438 165.746094 450.898438 163.414062 L 450.898438 155.375 C 450.898438 153.046875 449.921875 152.070312 448.273438 152.070312 L 446.847656 152.070312 Z M 446.847656 166.722656 "/>
<path style=" stroke:none;fill-rule:nonzero;fill:rgb(0%,0%,0%);fill-opacity:1;" d="M 313.234375 201.808594 L 309.480469 201.808594 L 309.480469 180.546875 L 315.113281 180.546875 C 319.238281 180.546875 321.042969 182.125 321.042969 185.957031 L 321.042969 189.5625 C 321.042969 193.09375 319.316406 195.199219 315.1875 195.199219 L 313.308594 195.199219 L 313.308594 201.808594 Z M 313.234375 191.742188 L 314.960938 191.742188 C 316.460938 191.742188 317.214844 190.914062 317.214844 189.410156 L 317.214844 186.03125 C 317.214844 184.378906 316.539062 183.777344 314.960938 183.777344 L 313.234375 183.777344 Z M 313.234375 191.742188 "/>
<path style=" stroke:none;fill-rule:nonzero;fill:rgb(0%,0%,0%);fill-opacity:1;" d="M 327.121094 201.808594 L 323.445312 201.808594 L 323.445312 180.546875 L 329.148438 180.546875 C 333.125 180.546875 334.777344 182.125 334.777344 185.65625 L 334.777344 188.210938 C 334.777344 190.3125 334.027344 191.367188 332.527344 191.964844 C 334.101562 192.492188 334.554688 193.542969 334.554688 195.648438 L 334.554688 200.457031 C 334.554688 201.058594 334.777344 201.507812 335.152344 201.882812 L 331.101562 201.882812 C 330.800781 201.660156 330.726562 201.132812 330.726562 200.457031 L 330.726562 195.875 C 330.726562 194.371094 330.273438 193.769531 328.699219 193.769531 L 327.121094 193.769531 Z M 327.121094 190.238281 L 328.921875 190.238281 C 330.425781 190.238281 331.023438 189.5625 331.023438 188.132812 L 331.023438 185.730469 C 331.023438 184.304688 330.425781 183.703125 328.921875 183.703125 L 327.121094 183.703125 Z M 327.121094 190.238281 "/>
<path style=" stroke:none;fill-rule:nonzero;fill:rgb(0%,0%,0%);fill-opacity:1;" d="M 336.878906 198.203125 L 339.355469 198.203125 L 339.355469 184.078125 L 336.878906 184.078125 L 336.878906 180.546875 L 345.511719 180.546875 L 345.511719 184.078125 L 343.035156 184.078125 L 343.035156 198.203125 L 345.4375 198.203125 L 345.4375 201.808594 L 336.804688 201.808594 L 336.804688 198.203125 Z M 336.878906 198.203125 "/>
<path style=" stroke:none;fill-rule:nonzero;fill:rgb(0%,0%,0%);fill-opacity:1;" d="M 347.089844 180.472656 L 350.992188 180.472656 L 353.542969 193.167969 L 353.769531 196.324219 L 353.992188 193.167969 L 356.472656 180.472656 L 360.375 180.472656 L 355.71875 201.734375 L 351.890625 201.734375 Z M 347.089844 180.472656 "/>
<path style=" stroke:none;fill-rule:nonzero;fill:rgb(0%,0%,0%);fill-opacity:1;" d="M 363.753906 198.652344 L 363.152344 201.808594 L 359.324219 201.808594 L 364.050781 180.546875 L 367.878906 180.546875 L 372.683594 201.808594 L 368.855469 201.808594 L 368.257812 198.652344 Z M 367.65625 195.273438 L 366.230469 188.210938 L 366.003906 185.203125 L 365.777344 188.210938 L 364.425781 195.273438 Z M 367.65625 195.273438 "/>
<path style=" stroke:none;fill-rule:nonzero;fill:rgb(0%,0%,0%);fill-opacity:1;" d="M 380.117188 180.472656 C 381.390625 180.472656 382.441406 180.695312 383.417969 181.148438 C 385.296875 181.972656 386.496094 183.777344 386.496094 186.859375 L 386.496094 195.496094 C 386.496094 197 386.195312 198.203125 385.671875 199.105469 C 384.621094 200.984375 382.59375 201.808594 380.117188 201.808594 L 374.636719 201.808594 L 374.636719 180.546875 L 380.117188 180.546875 Z M 378.464844 198.429688 L 379.964844 198.429688 C 381.617188 198.429688 382.519531 197.453125 382.519531 195.121094 L 382.519531 187.082031 C 382.519531 184.753906 381.542969 183.777344 379.890625 183.777344 L 378.464844 183.777344 Z M 378.464844 198.429688 "/>
<path style=" stroke:none;fill-rule:nonzero;fill:rgb(0%,0%,0%);fill-opacity:1;" d="M 392.050781 198.652344 L 391.449219 201.808594 L 387.621094 201.808594 L 392.351562 180.546875 L 396.179688 180.546875 L 400.984375 201.808594 L 397.15625 201.808594 L 396.554688 198.652344 Z M 395.953125 195.273438 L 394.527344 188.210938 L 394.300781 185.203125 L 394.078125 188.210938 L 392.726562 195.273438 Z M 395.953125 195.273438 "/>
<path style=" stroke:none;fill-rule:nonzero;fill:rgb(0%,0%,0%);fill-opacity:1;" d="M 314.960938 212.175781 C 316.238281 212.175781 317.289062 212.402344 318.265625 212.855469 C 320.140625 213.679688 321.34375 215.484375 321.34375 218.5625 L 321.34375 227.203125 C 321.34375 228.707031 321.042969 229.910156 320.515625 230.8125 C 319.464844 232.6875 317.4375 233.515625 314.960938 233.515625 L 309.480469 233.515625 L 309.480469 212.253906 L 314.960938 212.253906 Z M 313.308594 230.058594 L 314.8125 230.058594 C 316.460938 230.058594 317.363281 229.082031 317.363281 226.753906 L 317.363281 218.714844 C 317.363281 216.386719 316.386719 215.410156 314.738281 215.410156 L 313.308594 215.410156 Z M 313.308594 230.058594 "/>
<path style=" stroke:none;fill-rule:nonzero;fill:rgb(0%,0%,0%);fill-opacity:1;" d="M 324.121094 233.441406 L 324.121094 212.175781 L 334.027344 212.175781 L 334.027344 215.632812 L 327.871094 215.632812 L 327.871094 220.894531 L 333.277344 220.894531 L 333.277344 224.425781 L 327.871094 224.425781 L 327.871094 229.832031 L 334.175781 229.832031 L 334.175781 233.441406 Z M 324.121094 233.441406 "/>
<path style=" stroke:none;fill-rule:nonzero;fill:rgb(0%,0%,0%);fill-opacity:1;" d="M 336.65625 212.175781 L 340.558594 212.175781 L 340.558594 229.609375 L 346.261719 229.609375 L 346.261719 233.441406 L 336.65625 233.441406 Z M 336.65625 212.175781 "/>
<path style=" stroke:none;fill-rule:nonzero;fill:rgb(0%,0%,0%);fill-opacity:1;" d="M 355.042969 233.441406 L 355.042969 212.175781 L 358.421875 212.175781 L 363.300781 224.199219 L 364.050781 226.601562 L 363.828125 223.75 L 363.828125 212.253906 L 367.28125 212.253906 L 367.28125 233.515625 L 363.976562 233.515625 L 358.949219 221.417969 L 358.199219 218.863281 L 358.421875 222.019531 L 358.421875 233.515625 L 355.042969 233.515625 Z M 355.042969 233.441406 "/>
<path style=" stroke:none;fill-rule:nonzero;fill:rgb(0%,0%,0%);fill-opacity:1;" d="M 370.132812 227.355469 L 370.132812 218.414062 C 370.132812 214.054688 372.535156 211.953125 376.289062 211.953125 C 380.039062 211.953125 382.441406 214.054688 382.441406 218.414062 L 382.441406 227.355469 C 382.441406 231.789062 380.039062 233.816406 376.289062 233.816406 C 372.382812 233.816406 370.132812 231.789062 370.132812 227.355469 Z M 378.390625 227.054688 L 378.390625 218.5625 C 378.390625 216.308594 377.789062 215.332031 376.210938 215.332031 C 374.636719 215.332031 374.035156 216.386719 374.035156 218.5625 L 374.035156 227.054688 C 374.035156 229.234375 374.636719 230.285156 376.210938 230.285156 C 377.789062 230.210938 378.390625 229.234375 378.390625 227.054688 Z M 378.390625 227.054688 "/>
<path style=" stroke:none;fill-rule:nonzero;fill:rgb(0%,0%,0%);fill-opacity:1;" d="M 388.824219 233.441406 L 385.144531 233.441406 L 385.144531 212.175781 L 390.851562 212.175781 C 394.828125 212.175781 396.480469 213.753906 396.480469 217.285156 L 396.480469 219.839844 C 396.480469 221.945312 395.730469 222.996094 394.226562 223.597656 C 395.804688 224.125 396.253906 225.175781 396.253906 227.28125 L 396.253906 232.089844 C 396.253906 232.6875 396.480469 233.140625 396.855469 233.515625 L 392.800781 233.515625 C 392.5 233.289062 392.425781 232.765625 392.425781 232.089844 L 392.425781 227.503906 C 392.425781 226.003906 391.976562 225.402344 390.398438 225.402344 L 388.824219 225.402344 Z M 388.824219 221.945312 L 390.625 221.945312 C 392.125 221.945312 392.726562 221.269531 392.726562 219.839844 L 392.726562 217.4375 C 392.726562 216.007812 392.125 215.410156 390.625 215.410156 L 388.824219 215.410156 Z M 388.824219 221.945312 "/>
<path style=" stroke:none;fill-rule:nonzero;fill:rgb(0%,0%,0%);fill-opacity:1;" d="M 405.488281 233.441406 L 401.660156 233.441406 L 401.660156 215.632812 L 398.128906 215.632812 L 398.128906 212.101562 L 409.015625 212.101562 L 409.015625 215.632812 L 405.488281 215.632812 Z M 405.488281 233.441406 "/>
<path style=" stroke:none;fill-rule:nonzero;fill:rgb(0%,0%,0%);fill-opacity:1;" d="M 411.191406 233.441406 L 411.191406 212.175781 L 421.101562 212.175781 L 421.101562 215.632812 L 414.945312 215.632812 L 414.945312 220.894531 L 420.347656 220.894531 L 420.347656 224.425781 L 414.945312 224.425781 L 414.945312 229.832031 L 421.25 229.832031 L 421.25 233.441406 Z M 411.191406 233.441406 "/>
</g>
</svg>
